# xmcd CD database file
#
# Track frame offsets:
#	150
#	18577
#	39505
#	57932
#
# Disc length: 1049 seconds
#
# Revision: 0
# Processed by: cddbd v1.5.1PL0 Copyright (c) Steve Scherf et al.
# Submitted via: CDex 1.51
#
DISCID=2c041704
DTITLE=POLY-PHONIC - スペースラブ・Ironic
DYEAR=2004
DGENRE=Rock
TTITLE0=スペースラブ
TTITLE1=Ironic
TTITLE2=スペースラブ(off vocal)
TTITLE3=Ironic(off vocal)
EXTD=YEAR: 2004
EXTT0=
EXTT1=
EXTT2=
EXTT3=
PLAYORDER=
